<svg id="_x31_" enable-background="new 0 0 24 24" height="512" viewBox="0 0 24 24" width="512" xmlns="http://www.w3.org/2000/svg"><g><path d="m17.5 24c-3.584 0-6.5-2.916-6.5-6.5s2.916-6.5 6.5-6.5 6.5 2.916 6.5 6.5-2.916 6.5-6.5 6.5zm0-12c-3.032 0-5.5 2.467-5.5 5.5s2.468 5.5 5.5 5.5 5.5-2.467 5.5-5.5-2.468-5.5-5.5-5.5z"/></g><g><path d="m15.379 20.121c-.128 0-.256-.049-.354-.146-.195-.195-.195-.512 0-.707l4.242-4.242c.195-.195.512-.195.707 0s.195.512 0 .707l-4.242 4.242c-.097.097-.225.146-.353.146z"/></g><g><path d="m19.621 20.121c-.128 0-.256-.049-.354-.146l-4.242-4.242c-.195-.195-.195-.512 0-.707s.512-.195.707 0l4.242 4.242c.195.195.195.512 0 .707-.097.097-.225.146-.353.146z"/></g><g><path d="m9.5 15h-6c-.276 0-.5-.224-.5-.5s.224-.5.5-.5h6c.276 0 .5.224.5.5s-.224.5-.5.5z"/></g><g><path d="m8.5 18h-5c-.276 0-.5-.224-.5-.5s.224-.5.5-.5h5c.276 0 .5.224.5.5s-.224.5-.5.5z"/></g><g><path d="m8.5 7c-1.103 0-2-.897-2-2s.897-2 2-2 2 .897 2 2-.897 2-2 2zm0-3c-.552 0-1 .449-1 1s.448 1 1 1 1-.449 1-1-.448-1-1-1z"/></g><g><path d="m12 12c-.276 0-.5-.224-.5-.5v-1c0-.827-.673-1.5-1.5-1.5h-3c-.827 0-1.5.673-1.5 1.5v1c0 .276-.224.5-.5.5s-.5-.224-.5-.5v-1c0-1.378 1.121-2.5 2.5-2.5h3c1.379 0 2.5 1.122 2.5 2.5v1c0 .276-.224.5-.5.5z"/></g><g><path d="m9.5 21h-7c-1.379 0-2.5-1.122-2.5-2.5v-16c0-1.378 1.121-2.5 2.5-2.5h12c1.379 0 2.5 1.122 2.5 2.5v6.06c0 .276-.224.5-.5.5s-.5-.224-.5-.5v-6.06c0-.827-.673-1.5-1.5-1.5h-12c-.827 0-1.5.673-1.5 1.5v16c0 .827.673 1.5 1.5 1.5h7c.276 0 .5.224.5.5s-.224.5-.5.5z"/></g></svg>