<svg id="Layer_1" enable-background="new 0 0 512.003 512.003" color="red" height="512" viewBox="0 0 512.003 512.003" width="512" xmlns="http://www.w3.org/2000/svg"><g><path d="m40.567 387.892c-3.491-2.232-8.128-1.211-10.358 2.279-20.362 31.85-19.557 69.764-18.91 100.229.106 4.978.206 9.679.206 14.103 0 4.143 3.358 7.5 7.5 7.5s7.5-3.357 7.5-7.5c0-4.583-.102-9.362-.209-14.421-.604-28.435-1.355-63.822 16.551-91.832 2.231-3.49 1.21-8.127-2.28-10.358z"/><path d="m287.492 332.82c-11.518-1.221-23.967-1.917-37.081-2.075-.974-6.227-.468-14.112.5-18.881 2.65-1.583 5.189-3.354 7.592-5.307 38.956-31.5 58.708-59.891 58.708-84.383 0-2.556-.106-5.124-.314-7.633-.003-.038-.006-.077-.01-.115-.27-2.739-.437-8.622-.537-16.246h9.191c16.731 0 30.344-13.613 30.344-30.346 0-8.622-3.614-16.416-9.407-21.945 5.028-29.872 4.521-67.642-11.405-88.924-7.315-9.776-17.104-15.322-28.997-16.476-.383-.042-.712-.291-.857-.648-.048-.119-.1-.236-.154-.352-9.428-20.119-30.733-33.157-61.612-37.704-23.787-3.504-52.6-1.799-79.046 4.672-42.11 10.271-69.005 30.752-77.746 59.135-7.223 22.391-8.128 52.104-2.57 82.085-4.775 5.364-7.68 12.427-7.68 20.156 0 16.733 13.612 30.346 30.344 30.346h10.404c-.1 7.623-.266 13.507-.537 16.246-.004.039-.007.078-.01.117-.208 2.51-.314 5.078-.314 7.631 0 24.492 19.752 52.882 58.694 84.372 2.415 1.962 4.959 3.74 7.608 5.328.967 4.77 1.47 12.647.498 18.869-57.352.665-99.125 11.299-127.578 32.454-3.324 2.471-4.016 7.169-1.544 10.493 1.472 1.98 3.734 3.026 6.025 3.026 1.555 0 3.125-.482 4.469-1.481 20.258-15.062 49.685-24.415 87.752-27.935 5.246 31.064 32.244 54.41 64.533 54.41 32.302 0 59.301-23.355 64.537-54.43 1.557.142 3.097.294 4.619.455.269.029.535.042.8.042 3.787 0 7.041-2.859 7.449-6.71.437-4.116-2.549-7.81-6.668-8.246zm53.393-164.986c0 8.461-6.883 15.346-15.344 15.346h-9.306c-.037-9.76-.023-20.552-.005-30.691h9.311c8.461-.001 15.344 6.884 15.344 15.345zm-36.13-112.402c7.615.793 13.606 4.236 18.309 10.52 12.254 16.374 12.903 47.346 9.407 72.335-2.226-.522-4.546-.799-6.929-.799h-9.284c.002-1.505.004-2.98.005-4.418.286-12.503-6.775-24.125-18.01-29.631-.083-.041-.168-.081-.253-.118-4.103-1.824-8.701-3.479-13.717-4.953-4.665-15.745-4.353-27.699.942-34.715 6.212-8.232 18.166-8.245 19.53-8.221zm-187.481 127.748h-10.519c-8.46 0-15.344-6.884-15.344-15.346s6.883-15.346 15.344-15.346h10.524c.019 10.139.032 20.931-.005 30.692zm14.024 38.994c0-2.124.087-4.255.258-6.338.829-8.557.768-40.148.714-68.029-.01-5.203-.02-10.208-.023-14.83 0-.065-.001-.13-.002-.195-.173-6.652 3.551-12.845 9.496-15.815 5.848-2.585 13.005-4.822 21.277-6.648 4.044-.894 6.599-4.896 5.706-8.941-.894-4.044-4.894-6.599-8.941-5.706-9.315 2.058-17.481 4.631-24.271 7.649-.085.038-.169.078-.253.119-11.235 5.505-18.296 17.128-18.011 29.631.001 1.435.003 2.91.005 4.417h-10.497c-3.116 0-6.124.472-8.956 1.349-3.942-25.448-2.864-50.038 3.167-68.735 9.01-29.25 41.405-42.83 67.001-49.073 24.642-6.03 51.359-7.635 73.3-4.404 16.947 2.496 38.686 9.094 48.656 26.252-5.682 1.948-11.848 5.422-16.562 11.594-7.34 9.612-9.197 23.026-5.56 39.982-15.05-2.844-32.404-4.376-50.714-4.376h-.325c-7.151-.026-14.318.228-21.299.7-4.133.279-7.256 3.856-6.977 7.989.279 4.132 3.852 7.261 7.989 6.977 6.538-.442 13.249-.666 19.968-.666h.619c29.958 0 57.851 4.438 74.706 11.89 5.946 2.97 9.669 9.163 9.496 15.815-.001.063-.002.155-.002.218-.003 4.593-.013 9.593-.023 14.791-.054 27.889-.115 59.49.714 68.046.171 2.081.258 4.212.258 6.337 0 19.462-18.375 44.608-53.152 72.73-8.884 7.217-20.669 11.349-32.394 11.349h-.261c-11.598 0-22.941-4.028-31.967-11.36-34.765-28.111-53.14-53.257-53.14-72.719zm67.184 96.576c5.792 1.647 11.814 2.503 17.883 2.503h.346c6.242 0 12.41-.871 18.318-2.546-.383 6.972.109 14.671 2.05 20.683-.613 10.683-9.495 19.187-20.325 19.187s-19.712-8.504-20.325-19.187c1.938-6 2.431-13.68 2.053-20.64zm18.273 67.961c-24.385 0-44.855-17.267-49.478-40.476 4.852-.244 9.829-.402 14.929-.476 3.466 15.887 17.64 27.818 34.548 27.818s31.082-11.931 34.548-27.818c5.093.073 10.075.231 14.931.471-4.619 23.212-25.087 40.481-49.478 40.481z"/><path d="m415 472.172c-4.118-.022-7.541 3.264-7.594 7.405-.045 3.586-.12 7.098-.192 10.512-.107 5.057-.209 9.833-.209 14.415 0 4.143 3.358 7.5 7.5 7.5s7.5-3.357 7.5-7.5c0-4.422.1-9.121.206-14.096.073-3.457.149-7.011.194-10.642.052-4.143-3.264-7.542-7.405-7.594z"/><path d="m216.555 261.287c10.959 0 21.057-5.505 27.009-14.725 2.247-3.48 1.247-8.123-2.233-10.369-3.482-2.247-8.123-1.247-10.369 2.233-3.177 4.922-8.563 7.861-14.406 7.861s-11.229-2.938-14.407-7.861c-2.246-3.48-6.89-4.48-10.369-2.233-3.48 2.247-4.479 6.889-2.233 10.369 5.952 9.22 16.049 14.725 27.008 14.725z"/><path d="m203.073 211.843c3.479 2.246 8.122 1.248 10.369-2.232.732-1.134 1.97-1.811 3.312-1.811s2.581.677 3.313 1.811c1.435 2.222 3.846 3.433 6.308 3.433 1.394 0 2.804-.388 4.062-1.2 3.479-2.247 4.479-6.889 2.232-10.369-3.507-5.431-9.456-8.674-15.914-8.674s-12.407 3.243-15.914 8.674c-2.247 3.479-1.247 8.122 2.232 10.368z"/><path d="m405.603 265.58c-5.584 0-11.183.487-16.64 1.448-4.08.718-6.804 4.607-6.086 8.687s4.611 6.807 8.687 6.086c4.602-.81 9.325-1.221 14.04-1.221 44.301 0 80.342 36.019 80.342 80.292s-36.041 80.292-80.342 80.292-80.342-36.019-80.342-80.292c0-27.629 13.95-52.982 37.317-67.821 3.497-2.22 4.531-6.855 2.311-10.352s-6.854-4.532-10.352-2.311c-27.724 17.605-44.276 47.693-44.276 80.483 0 52.544 42.77 95.292 95.342 95.292s95.342-42.748 95.342-95.292-42.771-95.291-95.343-95.291z"/><path d="m104.986 470.971c-1.403-.041-4.147.323-6.818 2.946-2.943 2.89-6.855 9.205-6.855 30.586 0 4.143 3.358 7.5 7.5 7.5s7.5-3.357 7.5-7.5c0-13.057 1.569-17.991 2.248-19.515 2.222-1.268 3.739-3.64 3.788-6.383.075-4.141-3.221-7.559-7.363-7.634z"/><path d="m335.341 473.917c-2.671-2.624-5.419-2.976-6.818-2.946-4.142.075-7.438 3.493-7.363 7.634.049 2.744 1.566 5.116 3.788 6.383.68 1.524 2.248 6.458 2.248 19.515 0 4.143 3.358 7.5 7.5 7.5s7.5-3.357 7.5-7.5c0-21.381-3.912-27.696-6.855-30.586z"/><path d="m372.557 368.372h25.546v25.547c0 4.142 3.358 7.5 7.5 7.5s7.5-3.358 7.5-7.5v-25.547h25.546c4.142 0 7.5-3.358 7.5-7.5s-3.358-7.5-7.5-7.5h-25.546v-25.546c0-4.142-3.358-7.5-7.5-7.5s-7.5 3.358-7.5 7.5v25.546h-25.546c-4.142 0-7.5 3.358-7.5 7.5s3.358 7.5 7.5 7.5z"/></g></svg>