<?xml version="1.0" standalone="no"?>
<!DOCTYPE svg PUBLIC "-//W3C//DTD SVG 20010904//EN"
 "http://www.w3.org/TR/2001/REC-SVG-20010904/DTD/svg10.dtd">
<svg version="1.0" xmlns="http://www.w3.org/2000/svg"
 width="512.000000pt" height="512.000000pt" viewBox="0 0 512.000000 512.000000"
 preserveAspectRatio="xMidYMid meet">
<metadata>
Created by potrace 1.16, written by Peter Selinger 2001-2019
</metadata>
<g transform="translate(0.000000,512.000000) scale(0.100000,-0.100000)"
fill="#42BBB0" stroke="none">
<path d="M2265 5109 c-487 -60 -917 -239 -1310 -547 -105 -82 -350 -334 -433
-444 -263 -351 -430 -742 -498 -1163 -25 -155 -30 -537 -10 -705 67 -548 307
-1056 688 -1455 395 -413 874 -668 1442 -767 174 -30 543 -37 727 -13 1102
138 1984 955 2204 2040 47 230 59 584 30 825 -144 1157 -1068 2081 -2225 2225
-135 16 -493 19 -615 4z m401 -1254 c27 -16 54 -44 71 -73 l28 -47 3 -482 3
-482 482 -3 482 -3 47 -28 c137 -80 137 -274 0 -354 l-47 -28 -482 -3 -482 -3
-3 -482 -3 -482 -28 -47 c-80 -137 -274 -137 -354 0 l-28 47 -3 482 -3 482
-482 3 -482 3 -47 28 c-137 80 -137 274 0 354 l47 28 482 3 482 3 3 482 3 482
27 47 c61 102 181 133 284 73z"/>
</g>
</svg>
